# xmcd
#
# Track frame offsets:
#	150
#	10431
#	23269
#	37883
#	51309
#	63109
#	77950
#	89472
#	105897
#	120542
#	132785
#	149076
#	161452
#	175318
#	184405
#	198157
#	209749
#	230125
#	268463
#	277755
#	288787
#	304192
#	318637
#
# Disc length: 4708 seconds
#
# Revision: 1
# Processed by: cddbd v1.5.2PL0 Copyright (c) Steve Scherf et al.
# Submitted via: EasyCDDAExtractor 16.1.0.1
#
DISCID=4c126217
DTITLE=Dick Hyman - Moon Gas/Moog: The Electric Eclectics Of...
DYEAR=1969
DGENRE=Electronic
TTITLE0=Moon Gas
TTITLE1=Maid Of The Moon
TTITLE2=Isn't It Odd
TTITLE3=Stella By Starlight
TTITLE4=Imagination
TTITLE5=Space Reflex (Blues In 5/4)
TTITLE6=Bye, Bye, Blues
TTITLE7=They Can't Take That Away From Me
TTITLE8=For All We Know
TTITLE9=Desafinado
TTITLE10=I'm Glad There Is You
TTITLE11=Star Eyes
TTITLE12=The Topless Dancers Of Corfu
TTITLE13=The Legend Of Johnny Pot
TTITLE14=The Moog And Me
TTITLE15=Tap Dance In The Memory Banks
TTITLE16=Four Duets In Odd Meter
TTITLE17=The Minotaur
TTITLE18=Total Bells And Tony
TTITLE19=Improvisation In Fourths 
TTITLE20=Evening Thoughts
TTITLE21=Give It Up Or Turn It Loose
TTITLE22=Kolumbo
EXTD=
EXTT0=
EXTT1=
EXTT2=
EXTT3=
EXTT4=
EXTT5=
EXTT6=
EXTT7=
EXTT8=
EXTT9=
EXTT10=
EXTT11=
EXTT12=
EXTT13=
EXTT14=
EXTT15=
EXTT16=
EXTT17=
EXTT18=
EXTT19=
EXTT20=
EXTT21=
EXTT22=
PLAYORDER=
